<?xml version="1.0" encoding="utf-8"?>
<!-- Generator: Adobe Illustrator 22.1.0, SVG Export Plug-In . SVG Version: 6.00 Build 0)  -->
<svg version="1.1" id="Ebene_1" xmlns="http://www.w3.org/2000/svg" xmlns:xlink="http://www.w3.org/1999/xlink" x="0px" y="0px"
	 viewBox="0 0 38.3 100.3" style="enable-background:new 0 0 38.3 100.3;" xml:space="preserve">
<style type="text/css">
	.st0{fill:none;}
	.st1{fill:none;stroke:#000000;stroke-width:1.2;}
	.st2{fill:url(#SVGID_1_);}
</style>
<pattern  x="-278.9" y="-370.2" width="72" height="72" patternUnits="userSpaceOnUse" id="_x36__lpi_10_x25_" viewBox="72.3 -72 72 72" style="overflow:visible;">
	<g>
		<rect x="72.3" y="-72" class="st0" width="72" height="72"/>
		<g>
			<line class="st1" x1="144" y1="-6" x2="216.5" y2="-6"/>
			<line class="st1" x1="144" y1="-30" x2="216.5" y2="-30"/>
			<line class="st1" x1="144" y1="-54" x2="216.5" y2="-54"/>
			<line class="st1" x1="144" y1="-18" x2="216.5" y2="-18"/>
			<line class="st1" x1="144" y1="-42" x2="216.5" y2="-42"/>
			<line class="st1" x1="144" y1="-66" x2="216.5" y2="-66"/>
		</g>
		<g>
			<line class="st1" x1="72" y1="-6" x2="144.5" y2="-6"/>
			<line class="st1" x1="72" y1="-30" x2="144.5" y2="-30"/>
			<line class="st1" x1="72" y1="-54" x2="144.5" y2="-54"/>
			<line class="st1" x1="72" y1="-18" x2="144.5" y2="-18"/>
			<line class="st1" x1="72" y1="-42" x2="144.5" y2="-42"/>
			<line class="st1" x1="72" y1="-66" x2="144.5" y2="-66"/>
		</g>
		<g>
			<line class="st1" x1="0" y1="-6" x2="72.5" y2="-6"/>
			<line class="st1" x1="0" y1="-30" x2="72.5" y2="-30"/>
			<line class="st1" x1="0" y1="-54" x2="72.5" y2="-54"/>
			<line class="st1" x1="0" y1="-18" x2="72.5" y2="-18"/>
			<line class="st1" x1="0" y1="-42" x2="72.5" y2="-42"/>
			<line class="st1" x1="0" y1="-66" x2="72.5" y2="-66"/>
		</g>
	</g>
</pattern>
<pattern  id="SVGID_1_" xlink:href="#_x36__lpi_10_x25_" patternTransform="matrix(1 0 0 1 344.5833 171.6328)">
</pattern>
<rect class="st2" width="38.3" height="100.3"/>
</svg>
