<?xml version="1.0" encoding="utf-8"?>
<!-- Generator: Adobe Illustrator 22.1.0, SVG Export Plug-In . SVG Version: 6.00 Build 0)  -->
<svg version="1.1" id="Ebene_1" xmlns="http://www.w3.org/2000/svg" xmlns:xlink="http://www.w3.org/1999/xlink" x="0px" y="0px"
	 viewBox="0 0 35.9 36.5" style="enable-background:new 0 0 35.9 36.5;" xml:space="preserve">
<g>
	<path d="M26.1,25.9c-2.1,2.9,0.1,5.4,0.4,8.2c-3.6,1.4-7,3.2-11,2.2c-2.1-0.6-4.1-1.3-6.1-2.1c-1.8-0.8-3.1-2.1-4.2-3.8
		c-1.8-2.8-3.6-5.6-4.7-8.9c-0.7-2.2-0.8-4.4-0.3-6.6c1-4.1,3-7.5,5.9-10.5c2.5-2.7,6-3.5,9.5-4.1c4.5-0.8,8.5,0.6,12.3,2.8
		c0.8,0.5,1.5,1.2,2.1,1.9c1.3,1.8,2.8,3.5,3.8,5.5c2.5,4.9,2.5,10,0.4,15c-0.6,1.6-1,1.7-2.8,1.5C29.8,26.7,28,26.3,26.1,25.9z
		 M24.1,29.6c-3.4,0.8-6.7,0.4-9.9,0.3c-0.9,0-1.8-0.6-2.6-1c-2.7-1.4-3.7-3.9-4.8-6.6c-1.9-4.4-1-8.3,1.4-12
		c0.7-1.1,1.9-1.9,3.1-2.5c1.4-0.7,2.9-1.3,4.5-1.6C18.5,5.6,21.5,5,24,6.8c5.7,3.9,8.6,11.6,4.6,18.4c1.1,0.3,2.1,0.6,3.1,0.9
		c1.8-1.8,2.2-3.9,2.3-6.1c0.1-7.2-3.1-12.8-9-16.7c-2.7-1.8-6-2.2-9.2-1.1C13.6,2.9,11.6,4,9.7,5c-2.3,1.2-4.1,3.1-5.5,5.3
		c-2,3.2-2.7,6.8-1.5,10.6C4,24.6,6,27.9,9.1,30.5c3.5,2.9,7.4,4.3,12,3.4c1.4-0.3,2.7-0.8,4.1-1.2C24.8,31.5,24.5,30.6,24.1,29.6z
		 M28,17.8c0-5.6-4.2-9.8-9.8-9.8c-5.3,0-10.1,4.6-10.1,9.9c0,5,5.1,10,10.2,10C23.8,27.9,28,23.5,28,17.8z"/>
	<path d="M24.9,18.3c-0.1,3.4-3.5,6.7-6.8,6.3c-3.8-0.4-6.5-2.5-6.5-7.2c0-3.5,3.1-6.4,6.6-6.2C21.9,11.4,25.1,14.7,24.9,18.3z
		 M18,13.5c-2.4,0-4.2,1.6-4.2,4c0,3.8,1.5,4.6,4.5,5.1c2.1,0.3,4.4-1.9,4.4-4.2C22.7,15.3,21,13.7,18,13.5z"/>
	<path d="M18.2,20c-1,0-2-1-2.1-1.9c-0.1-1,1-2.1,2.1-2.2c1.1,0,1.9,0.8,2,1.9C20.3,19,19.4,20,18.2,20z"/>
</g>
</svg>
